<?xml version="1.0" encoding="utf-8"?>
<!-- Generator: Adobe Illustrator 25.4.8, SVG Export Plug-In . SVG Version: 6.00 Build 0)  -->
<svg version="1.1" id="Layer_1" xmlns="http://www.w3.org/2000/svg" xmlns:xlink="http://www.w3.org/1999/xlink" x="0px" y="0px"
	 viewBox="0 0 85.6 78" style="enable-background:new 0 0 85.6 78;" xml:space="preserve">
<style type="text/css">
	.st0{fill:#FFFFFF;}
</style>
<g id="c3a0a99d-5b99-a49f-d46f-4168a2d07e26" transform="matrix(0.9288891262478298,0,0,0.9288891262478298,183.17781124538936,-199.52452538383787)">
	<g>
		<path class="st0" d="M-151,295c10.1,0,19.6-3.9,26.7-11c7.1-7.1,11-16.6,11-26.7c0-10.1-3.9-19.6-11-26.7
			c-7.1-7.1-16.6-11-26.7-11s-19.6,3.9-26.7,11c-7.1,7.1-11,16.6-11,26.7c0,10.1,3.9,19.6,11,26.7C-170.6,291.2-161.1,295-151,295z
			 M-148.8,288.6c-0.7,0.1-1.4,0.1-2.2,0.1c-1,0-2-0.1-3-0.2c-3.2-5.1-5.7-10.5-7.1-16.1h16c0.5,1.4,1.5,2.6,2.7,3.4
			C-144,280.3-146.1,284.6-148.8,288.6z M-140.3,286.8c1.7-3.2,3.1-6.3,4.1-9.7c2.6-0.5,4.7-2.3,5.7-4.8h6.9
			C-127.1,279-133.1,284.1-140.3,286.8z M-119.7,257.3c0,3-0.5,5.9-1.2,8.7h-9.7c-0.5-1.2-1.4-2.3-2.5-3.1c0.2-2,0.3-4,0.3-6
			c0-2.8-0.2-5.6-0.5-8.3h12.4C-120.1,251.4-119.7,254.4-119.7,257.3z M-123.5,242.3h-11c-1.2-5-2.9-9.7-5.2-14.2
			C-132.9,230.7-127.1,235.9-123.5,242.3z M-139.2,257c0,1.5-0.1,3.1-0.2,4.6c-2.5,0.5-4.6,2.2-5.6,4.4h-17.4
			c-0.4-2.7-0.6-5.5-0.6-8.2c0-1.7,0.1-3.4,0.3-5.1c2.3-0.5,4.2-2,5.4-4h17.6C-139.4,251.4-139.2,254.2-139.2,257L-139.2,257z
			 M-153.4,226.1c0.8-0.1,1.6-0.1,2.3-0.1c0.9,0,1.8,0,2.7,0.1c3.2,5.1,5.7,10.5,7.1,16.1h-15.7c-0.5-1.5-1.5-2.9-2.8-3.9
			C-158,234.1-156,230-153.4,226.1L-153.4,226.1z M-161.9,227.9c-1.5,2.9-2.9,6-4,9c-2.8,0.5-5.1,2.6-6,5.2h-6.6
			C-174.9,235.8-169.1,230.6-161.9,227.9z M-182.3,257.3c0-3,0.5-6,1.3-8.7h9.8c0.5,1,1.4,1.9,2.3,2.6c-0.2,2.2-0.4,4.3-0.4,6.5
			c0,2.8,0.2,5.5,0.5,8.2h-12.3C-182,263.2-182.3,260.3-182.3,257.3z M-167.7,272.3c1.2,4.9,2.9,9.7,5.2,14.2
			c-6.9-2.7-12.5-7.8-16.1-14.2H-167.7z"/>
	</g>
</g>
</svg>
